<svg xmlns="http://www.w3.org/2000/svg" viewBox="0 0 43.09 31.44"><defs><style>.cls-1{fill:#f15c22;}.cls-2{fill:#fff;}</style></defs><title>Asset 3</title><g id="Layer_2" data-name="Layer 2"><g id="ele"><path class="cls-1" d="M25.86,4.17,22,5.78l4.06-1.32A3.15,3.15,0,0,1,25.86,4.17Z"/><path class="cls-1" d="M40.25,2.2a3.41,3.41,0,0,1-2.78,2.58,2.64,2.64,0,0,1-1.93,3.06q-9.69,3-19.29,6.3c-3.95,1.35-7.94,3.72-12,1.73a2.77,2.77,0,0,1-1.64-2.79l-.64.16-.84,3.38a2.24,2.24,0,0,0-.83,3q2.11,4.49,4.27,9c.28.58.55,1.18.85,1.75a2.28,2.28,0,0,0,4.15-.42.86.86,0,0,1,.55-.63L31.78,18.89a1.81,1.81,0,0,0,1.13-1.69.57.57,0,0,1,.26-.38c.57-.3,1.14-.58,1.72-.83a11.82,11.82,0,0,0,4.58-3.61c.26-.34.51-.68.74-1L43,8.1l-.46-5.88Z"/><path class="cls-2" d="M43,2.88c.37,2.15-.65,3.83-1.88,5.42a11.82,11.82,0,0,1-4.58,3.61c-.58.26-1.15.54-1.72.83a.59.59,0,0,0-.26.39,1.83,1.83,0,0,1-1.13,1.69Q22.58,20,11.73,25.17a.83.83,0,0,0-.55.63A2.29,2.29,0,0,1,7,26.22c-.3-.58-.57-1.17-.85-1.76Q4,20,1.91,15.5a2.22,2.22,0,0,1,1.33-3.18,5.48,5.48,0,0,1,1.35-.05,2,2,0,0,0,.74-.09Q16.16,7,27,1.85a3.87,3.87,0,0,1,.73-.3A1.54,1.54,0,0,1,29.29,2c.19.22.33.2.56.09.78-.38,1.55-.79,2.36-1.12A11.67,11.67,0,0,1,40.75.68,4.83,4.83,0,0,1,42.58,2ZM17.84,11.45l9.63-4.59a4.13,4.13,0,0,0,.58-.33,1.1,1.1,0,0,0,.35-1.3,1.18,1.18,0,0,0-1.77-.51L7.07,14.06a1.77,1.77,0,0,0-.49.31,1.12,1.12,0,0,0,1.06,1.92,4.93,4.93,0,0,0,.53-.22Z"/></g></g></svg>