<svg xmlns="http://www.w3.org/2000/svg" viewBox="0 0 158.78 182.75"><defs><style>.cls-1{fill:#f15c22;}.cls-2{fill:#fff;}</style></defs><title>Asset 8</title><g id="Layer_2" data-name="Layer 2"><g id="ele"><path class="cls-1" d="M84.62,163.23a21.06,21.06,0,0,1-9.73.55c-2.56-.41-5-1.23-7.55-1.76-6.65-1.39-13.28-3.1-20-4.39l-.92.17a14.1,14.1,0,0,1-10.27-3c-2.41-2-4.95-5.86-5-9.1-.16-14.53.08-29.05-.08-43.57C31,88.09,30,74,26.72,60.28a97.48,97.48,0,0,1-2.85-15.65c-.45-5.47,0-10.89.26-16.35a29.12,29.12,0,0,0-.28-3.73c-.16-.42-.33-.85-.52-1.27-2.2-4.83-.77-10.11,2.46-13.87L21,7.22,2.63,20.63A6.43,6.43,0,0,0,0,26.06L.64,42.25C.7,45.46.76,48.7.82,52c0,2.44-.09,4.89.1,7.31.23,3.08-.49,6.41.74,9.26v0l0,.06a6.7,6.7,0,0,0,.87,1.46L6,75.78a6.69,6.69,0,0,1-.08.88c-.09.65-.48,1.43.28,1.88l0,0,.26,13.31a16.8,16.8,0,0,0-.05,1.88c.42,16.11.5,32.23,1.05,48.35l.39,19.59a16.73,16.73,0,0,0,0,2.07h0c.27,2.6,1.71,3.16,7.49,5.65,10.31,4.45,44.16,10.66,62.93,13.16a18.57,18.57,0,0,0,15.5-5.18l13.66-13.51-23.1,0Z"/><path class="cls-1" d="M68.78,134.35c.88.19,1.77.4,2.65.61q.48-2.15,1-4.29l-.69-1.2c-.11.34-.23.69-.37,1A11.4,11.4,0,0,1,68.78,134.35Z"/><path class="cls-2" d="M91.13,4.17c13.13,2.19,26.24,4.56,39,8.32,7.25,2.13,14.62,4,21.37,7.57a30,30,0,0,1,4.22,2.62c3.25,2.5,3.65,4.14,2.32,8.09-4.41,13.05-8.9,26.07-13.16,39.17-1,3.06-2.37,5.49-5.43,6.69-1.92.75-2.72,2.28-3.34,4.1q-10.41,30.51-20.87,61-3.45,10.08-6.8,20.19c-1,3.09-3.43,4.38-6.23,5.2-6.09,1.8-12.37,1.85-18.61,1.57-15.73-.72-31.14-3.21-45.82-9.19A58.07,58.07,0,0,1,32.54,157c-3.9-2.11-5.8-5-5.86-9.86-.38-27.93-1.09-55.86-1.74-83.78,0-1.2.37-2.66-.85-3.56-4.27-3.15-4.21-7.68-4.28-12.34-.18-13.18-.56-26.35-.88-39.53-.06-2.61,1.63-4.67,5-5.76C29.55.26,35.42.05,41.28,0,58-.12,74.6,1.77,91.13,4.17ZM143.58,55.3c1.52-1.18,1.5-3.09,2.07-4.68,1.91-5.35,3.66-10.77,5.3-15.62A331.43,331.43,0,0,1,24.66,15.38c.13,6.9.27,14.17.4,21.45,0,2.44-.08,4.89.1,7.32.32,4.22-1.17,8.92,3.06,12.18a5.14,5.14,0,0,1,1.94,5.22c-.1.64-.49,1.42.28,1.87s1.23-.35,1.73-.72C39.82,57,47.84,58.37,53,66.34c1.08,1.66,1.62,2,3.08.39,7.6-8.2,18.21-6.94,23.56,2.77.88,1.59,1.4,1.54,2.72.39,8.57-7.46,18.49-5.55,23.4,4.56,1,2.07,1.55,1.75,3,.49a13.68,13.68,0,0,1,16.54-1.65c2.42,1.37,3.94,3.63,5.94,6.59.39-4.86,3-7.12,6.62-8.57a2.7,2.7,0,0,0,1.63-2C140.73,64.63,142.94,60.2,143.58,55.3Zm-71.49,57-.48-.07q1-6.54,2-13.07c.43-2.8.8-5.62,1.27-8.42.25-1.51,1.1-2.56,2.77-2.44,1.85.14,2.43,1.42,2.4,3.07a12.88,12.88,0,0,1-.22,1.75c-2.18,15.21-4.69,30.37-6.56,45.63-1,8.17-1.11,8,7.18,8.52,2.3.15,3.08-.56,3.64-2.43q3.39-11.38,6.84-22.73,4.13-13.6,8.28-27.2c.52-1.7,1.5-2.89,3.41-2.25s2.13,2.09,1.6,3.84q-3.33,10.94-6.62,21.88c-2.61,8.7-5.14,17.42-7.81,26.11-.76,2.48.28,3.16,2.5,3.13a67.82,67.82,0,0,0,12.49-1.07c1.39-.29,2.89-.62,3.53-2.25.92-2.35,2-4.65,2.84-7,4.27-12.27,8.53-24.53,12.66-36.85,1.27-3.78,2.89-7.49,3.29-11.53.47-4.75-1.89-10.06-5-11.07-5.88-1.93-10-.41-13.13,5a20.38,20.38,0,0,0-1.57,3.46c-.55,1.57-1.57,2.68-3.22,2.32s-2.48-1.74-2.12-3.6a13.73,13.73,0,0,0-.51-6.67c-1.15-3.8-3.43-6.73-7.45-7.49s-7,1.37-9.36,4.33a15.56,15.56,0,0,0-3,6.64c-.37,1.71-1,3.2-3,2.88-2.15-.35-2.67-2-2.28-4A12.59,12.59,0,0,0,76,74.26c-2.15-6.75-8.85-10.81-15.65-4.38a15.27,15.27,0,0,0-4.08,8c-.4,1.78-1.23,3-3.09,2.82s-2.23-1.73-2.26-3.45a14.54,14.54,0,0,0-2.65-8.55c-3.89-5.39-10.28-5.45-14.3-.18a15.72,15.72,0,0,0-3.26,10.14c.45,17.09.5,34.19,1.16,51.28.13,3.52,1.64,5.05,4.26,6.46,3.73,2,7.78,3.11,11.76,4.41,1.45.48,2.22,0,2.24-1.61.07-6,.21-12.09.26-18.14q.1-16.35.14-32.71c0-2,.76-3.4,2.79-3.36,1.88,0,2.59,1.46,2.5,3.28,0,.48.12,1,.11,1.46q-.15,25.18-.35,50.39c0,1.89.5,3,2.56,3.59,2.37.68,4.78,1,7.17,1.43.84.17,1.9-.12,1.73-1-.42-2.19.86-3.94,1.14-6C69.33,129.52,70.75,120.92,72.09,112.32ZM24.28,7.74c6.49,4.56,13.3,6.73,20.13,8.71a355.39,355.39,0,0,0,64.49,12A251.39,251.39,0,0,0,139.56,30a44.83,44.83,0,0,0,13.66-2.15,12.69,12.69,0,0,0-4.94-3.42,117,117,0,0,0-22.16-7.54,377.66,377.66,0,0,0-51-9.29C63.75,6.41,52.4,5.32,41,5.41,35.55,5.45,30.08,5.54,24.28,7.74Zm81.58,144.74A155.86,155.86,0,0,1,32.25,141c0,10.33-1.84,9.38,7.39,13.36,14,6,28.88,8.29,44,8.95a57.38,57.38,0,0,0,16.58-1.2c1.24-.31,2.58-.58,3.08-1.95C104.23,157.57,105,155,105.86,152.48Z"/></g></g></svg>