<svg xmlns="http://www.w3.org/2000/svg" viewBox="0 0 180.69 210.89"><defs><style>.cls-1{fill:#fff;}.cls-2{fill:#f15c22;}</style></defs><title>Asset 1</title><g id="Layer_2" data-name="Layer 2"><g id="ele"><path class="cls-1" d="M83.32,53.57c3.34-1.55,6.66-3.13,10-4.65,2.75-1.25,5-.65,6,1.57s.18,4.52-2.62,5.84Q86.57,61.1,76.36,65.82c-2.66,1.23-5,.52-6-1.71s-.07-4.41,2.6-5.69C76.38,56.77,79.86,55.19,83.32,53.57Z"/><path class="cls-2" d="M89.74,171.5c-2,3.18-5.55,5-9.13,5.8a12,12,0,0,1-4.36,0,32.7,32.7,0,0,1-7.09,5.36c-7.49,4.53-18.79-1.93-19.61-10.3a223,223,0,0,1-.68-33.3,66.3,66.3,0,0,1,2.7-14.6c-.13-1-.26-2.06-.41-3.09a14.72,14.72,0,0,1,.06-4.55A14.18,14.18,0,0,1,41.44,109a14.5,14.5,0,0,1-1.24-4.75,17.5,17.5,0,0,1-12.79-1.16c-5.38-2.78-7.94-7.7-10.38-13a13.46,13.46,0,0,1-.61-9.92c-2.68,1.07-4.12,2.85-3.48,6l-.34.16L6.41,73.15,1,92.28a3.46,3.46,0,0,0-.94,3.33h0A9.8,9.8,0,0,0,.8,97.7q6.53,14,13.07,28.05c2.79,6,2.79,6,9.08,4.88,8.15-1.45,15.13,4.11,14.93,12.5a159.5,159.5,0,0,1-1.9,18.2c-2,14.53-.69,28.59,5.28,42.12a11.81,11.81,0,0,0,8.37,6.85,15.23,15.23,0,0,0,10-.53c8.58-3.7,17.23-7.32,25.52-11.61,8-4.14,10-9.14,8.33-17.91q-1.09-6-2.2-11.89A15.58,15.58,0,0,1,89.74,171.5Z"/><path class="cls-2" d="M120.89,102.61q-.37-3.27-.77-6.54a14.14,14.14,0,0,1-6.53,6.5,13.52,13.52,0,0,1-3.68,1.12,13.35,13.35,0,0,1-4.46,3.4,13.51,13.51,0,0,1-11.26.11,13.41,13.41,0,0,1-4.82-.32,16,16,0,0,1,.15,3.11,13.28,13.28,0,0,1-5.11,9.46A15.15,15.15,0,0,1,86.93,123a12,12,0,0,1,1.34,5.78,14.76,14.76,0,0,1,1.4,2.21,12.33,12.33,0,0,1,1.25,7.25c9.44-4.35,18.86-8.76,28.29-13.16.51-.23,1-.45,1.34-.67l10.8-5-3.7-23.64Z"/><path class="cls-2" d="M170,44.24l-1.56-3.36a13,13,0,0,1-2.63,1.64c-10.72,5-21.37,10.13-32.18,14.91-6.12,2.71-12.31,5.19-18.52,7.64a14.69,14.69,0,0,1-2,6.15,15,15,0,0,1,8.29,7.25,12.83,12.83,0,0,1,.61,10q18.11-8.31,36.11-16.82l20.34-9.41L180.5,37.4Z"/><path class="cls-2" d="M90.05,82l23.28,10.62-.91,10.18-19.64,9.15-6-12.83S87.51,80.73,90.05,82Z"/><path class="cls-1" d="M18.24,66.25c-.65-3.24.84-5,3.6-6.09a23.63,23.63,0,0,0,3.6-1.69,7.46,7.46,0,0,1,7.36-.4,4.23,4.23,0,0,0,3.07-.1Q86.1,34.66,136.29,11.25c1-.47,1.61-.86,1.43-2.24-.23-1.85.86-3.21,2.55-4a41.7,41.7,0,0,1,6.63-3,10.18,10.18,0,0,1,5.06.33,4.69,4.69,0,0,0,4-.23,27.48,27.48,0,0,1,3.6-1.69c2.5-1,4.57-.25,5.7,2.15q7.51,16,14.94,32.06c1.17,2.53.37,4.56-2.17,5.84a12.69,12.69,0,0,1-1.8.83,7,7,0,0,0-4.93,5.06,6,6,0,0,1-3.14,3.05q-20.58,9.75-41.28,19.25c-1.73.79-2.12,1.68-1.89,3.49C126.05,81,127,89.82,128,98.65c.45,3.9,0,4.73-3.5,6.36-10.42,4.86-20.83,9.74-31.27,14.54-1.44.66-1.88,1.31-1.56,3,2.44,12.54,4.75,25.12,7.08,37.68,1.63,8.77-.34,13.78-8.33,17.91-8.29,4.3-16.94,7.92-25.52,11.61a15.24,15.24,0,0,1-10,.54,11.83,11.83,0,0,1-8.37-6.86c-6-13.53-7.29-27.58-5.27-42.11a159.48,159.48,0,0,0,1.89-18.2c.2-8.39-6.78-13.95-14.93-12.51C22,111.7,22,111.7,19.17,105.72Q12.65,91.7,6.1,77.66c-1.58-3.4-.89-5.32,2.52-6.93C11.75,69.25,14.89,67.8,18.24,66.25ZM159.42,9.33c-3.14,2.48-6.38,2.36-9.79.81-.46-.21-2.24,1-2.21,1.45.15,2.91-1.52,4.23-3.83,5.3Q90.78,41.46,38,66.11a7.11,7.11,0,0,1-6.14.3c-3.26-1.32-3.4-1-4.22,2.29a6.53,6.53,0,0,1-2.95,3.48c-2.52,1.5-5.3,2.56-8,3.82-.63.3-1.23.68-1.91,1.06l12.05,25.87c.76-.09,1.48-.19,2.2-.25,7.57-.7,13.84,1.94,18.45,7.87,4,5.1,4.53,11.24,3.84,17.46-.52,4.68-1.31,9.33-2,14-1.92,12.86-.9,25.36,4.34,37.41.93,2.16,2.31,3.2,4.46,3.25a10.39,10.39,0,0,0,4.33-.55c8.46-3.81,16.9-7.69,25.24-11.75,3.15-1.54,4-3.7,3.43-7.16-.11-.72-.25-1.45-.38-2.17Q86.88,140.57,83,120.1c-.62-3.27,0-4.58,3-6l4.42-2.07a5.06,5.06,0,0,0-.57-.93,29.39,29.39,0,0,1-7.27-11.72c-2.35-6.68-1.57-12.9,3.23-18.36a27.56,27.56,0,0,1,9.55-6.58q33.48-15.57,67-31.15a4.1,4.1,0,0,0,2.65-3,6.05,6.05,0,0,1,4.21-4.69,14.94,14.94,0,0,0,2-1ZM117,73.48l-19.3,9c2.1,5.4,5.09,7.34,11.31,7.42,2.77,0,4.53,1.61,4.55,4,0,2.27-1.69,3.91-4.34,4a18.42,18.42,0,0,1-16-7.19c-.75-.94-1.41-1.94-2.11-2.91l-.61,0c-.33,1.61-1,3.24-.93,4.81.43,6.16,3.45,11,8.41,14.56a2.82,2.82,0,0,0,2.38.16c6.11-2.76,12.16-5.65,18.26-8.42a1.79,1.79,0,0,0,1.13-2.23c-.62-5.18-1.18-10.37-1.77-15.55C117.63,78.69,117.3,76.15,117,73.48Z"/></g></g></svg>